PathFileType	4	(X/Y/Z)	/Users/visionmauri/Downloads/Videos/OAW04-top_Sports2D/OAW04-top_Sports2D_px_person00.trc
DataRate	CameraRate	NumFrames	NumMarkers	Units	OrigDataRate	OrigDataStartFrame	OrigNumFrames
30.0	30.0	7	22	m	30.0	1775	2367
Frame#	Time	Hip			RHip			RKnee			RAnkle			RBigToe			RSmallToe			RHeel			LHip			LKnee			LAnkle			LBigToe			LSmallToe			LHeel			Neck			Head			Nose			RShoulder			RElbow			RWrist			LShoulder			LElbow			LWrist			
		X1	Y1	Z1	X2	Y2	Z2	X3	Y3	Z3	X4	Y4	Z4	X5	Y5	Z5	X6	Y6	Z6	X7	Y7	Z7	X8	Y8	Z8	X9	Y9	Z9	X10	Y10	Z10	X11	Y11	Z11	X12	Y12	Z12	X13	Y13	Z13	X14	Y14	Z14	X15	Y15	Z15	X16	Y16	Z16	X17	Y17	Z17	X18	Y18	Z18	X19	Y19	Z19	X20	Y20	Z20	X21	Y21	Z21	X22	Y22	Z22
1775	59.19167371090449	690.5422204174237	1172.385154293379	0.0	652.0396402024301	1173.9231758515025	0.0	650.8355814109391	1299.3152621939093	0.0	641.8763028072865	1371.9173864647855	0.0	632.9125192910316	1434.698946308345	0.0	615.3266634493945	1419.1145161381314	0.0	644.7262862527481	1373.6974757364203	0.0	728.4711296042248	1171.9698358625917	0.0	720.8943573799246	1314.4952751106232	0.0	706.7504826726091	1458.9135290234628	0.0	712.5343064962918	1520.8660278311684	0.0	729.2543916454815	1512.7295205804126	0.0	695.1392245617877	1474.4084814380146	0.0	679.4267742002465	974.8682501905645	0.0	657.6683091854535	871.6824774330552	0.0	665.4796097911203	966.0193935083355	0.0	609.8626403368512	987.5929011271115	0.0	587.6961172571507	1100.538640442847	0.0	584.7058182465622	1201.7808697495793	0.0	756.109880844248	983.054469013227	0.0	793.0109651253109	1087.7458258121528	0.0	805.3425219223451	1183.9005313175858	0.0
1776	59.22502113271345	690.9467249080084	1178.1641569608341	0.0	651.906015847634	1178.8097608881685	0.0	651.8324467540141	1308.6726196950835	0.0	644.8098967977571	1400.9795184490574	0.0	634.9610916196309	1466.1204016370136	0.0	617.3263525072545	1449.4030452860266	0.0	648.8703237857169	1407.4451948940084	0.0	729.7540753595094	1177.989217807475	0.0	721.1258981809809	1319.0110727203228	0.0	706.7784414798086	1458.6482588524261	0.0	712.5433097026261	1521.3779723279451	0.0	729.5096189200441	1513.029457949954	0.0	695.9334976986918	1474.9796125741825	0.0	680.661741135223	978.4852442704323	0.0	656.7438995792637	873.9941991952959	0.0	664.1639164462326	970.8189220694878	0.0	609.5665177592831	989.8979304393957	0.0	587.6498330032335	1103.3913372039858	0.0	585.8934509354821	1206.0612502514182	0.0	758.6600996937728	986.9225240661801	0.0	796.1509021373814	1097.9067683089531	0.0	806.384834098001	1198.6381569795524	0.0
1777	59.25836855452241	691.061723898293	1184.3550380950999	0.0	652.4047722016232	1185.6928919352035	0.0	652.5312737269322	1322.204897042371	0.0	646.8542259068277	1434.4251784040493	0.0	636.3329706886366	1500.4313665082584	0.0	618.6684389507737	1484.274741280938	0.0	651.6894434889499	1445.6976518719198	0.0	730.5708139970857	1185.5642506010045	0.0	721.0150301453269	1326.064564761545	0.0	706.716615821471	1459.1042688953028	0.0	712.8524382934811	1522.1253935165462	0.0	729.6846703187246	1513.2646482736657	0.0	697.1306317851693	1474.6747143404239	0.0	682.5902842934486	985.876015776385	0.0	656.8713452800129	883.2595371899832	0.0	663.7952653444567	980.9845109822936	0.0	609.4600812226072	992.7376037397925	0.0	587.6489954206878	1105.9011791617816	0.0	586.3773560705328	1208.577595992648	0.0	760.2075941386566	992.0988732085744	0.0	798.2019717075606	1107.068053766816	0.0	806.7289143310472	1212.2900033561903	0.0
1778	59.29171597633137	691.1191186545084	1191.969132961995	0.0	652.8399353124759	1193.973116538297	0.0	652.6341632778499	1337.9113475516601	0.0	647.8434327768769	1468.5815529356862	0.0	636.0729115892156	1533.1939216153485	0.0	618.9126323200474	1519.646013024995	0.0	652.9082145801718	1483.3089344991163	0.0	731.0091110701441	1194.168610924958	0.0	720.916054271565	1336.1334693970077	0.0	706.4869180256783	1461.106896049977	0.0	713.4992846049689	1523.6593249200148	0.0	729.7713043092156	1513.7512379255459	0.0	697.994295739405	1474.4680366713906	0.0	684.5316695095762	995.8355338158191	0.0	657.4284808840589	896.3142456183589	0.0	663.8336938394327	993.0286585679867	0.0	609.4895482644595	996.3166550905954	0.0	588.0810827096093	1108.8566146141677	0.0	586.1797919400591	1210.1894517476105	0.0	760.679205460327	997.667085390957	0.0	798.1788597529863	1114.8828442809674	0.0	805.2194709364269	1224.0151696738349	0.0
1779	59.32506339814033	690.5221217274445	1201.1645570042754	0.0	651.7201094818981	1202.6104257492245	0.0	652.0065180302178	1352.8285804904256	0.0	647.683865567538	1500.7198819456746	0.0	633.5124291878069	1563.002414963564	0.0	617.2253547211375	1552.1895928988788	0.0	652.9924005315575	1518.230675620917	0.0	730.7741011682965	1203.4922377689306	0.0	720.9477521863569	1347.2192585348525	0.0	706.3828716341037	1463.5713960902963	0.0	713.7618741052497	1525.7751209933822	0.0	730.1485673220111	1514.6000654253019	0.0	698.2331437162452	1474.493563736102	0.0	685.5001736904655	1004.6721481412143	0.0	657.0024236386763	905.4061192187902	0.0	663.047490434336	1000.4605338566331	0.0	609.1771234074837	1000.9495295205792	0.0	588.5408408080399	1112.2683881068365	0.0	585.2818740624467	1211.465202547712	0.0	760.8173522010753	1003.1668800932547	0.0	795.764215222582	1122.3636355054243	0.0	799.9987962410265	1233.8615970592434	0.0
1780	59.35841081994929	688.924198523581	1210.068883412909	0.0	649.3935615342359	1211.2945157249922	0.0	651.2979247189816	1365.7660429794787	0.0	647.0788340684874	1528.8342767139907	0.0	629.6179005312898	1589.1881449345867	0.0	614.0723952212034	1579.7388111759935	0.0	652.6691891131243	1549.7717955075918	0.0	729.7474372977073	1213.134923130225	0.0	721.2251725604841	1355.8461080945772	0.0	706.3992546698174	1464.5745383746544	0.0	713.6241312157784	1527.251679891661	0.0	731.0463032735498	1515.3439224729655	0.0	698.1578085262668	1473.8854202209486	0.0	685.2047534081184	1010.0602763842438	0.0	655.0896842629679	908.9001548846705	0.0	661.5901417969148	1002.2731261331156	0.0	608.3187701752632	1006.5716933171783	0.0	588.2697478191974	1115.7592547274048	0.0	583.7316179380538	1212.7917369526308	0.0	760.9579447389906	1008.810935892252	0.0	791.4427610149341	1130.3653938695982	0.0	790.2913425563542	1241.6136664492612	0.0
1781	59.391758241758254	686.8139539132869	1217.5816089007394	0.0	647.3268800331085	1220.1847724500378	0.0	650.9248034797545	1377.7253835169313	0.0	647.1388169933682	1552.6681387018805	0.0	626.2918559847749	1611.455003658488	0.0	611.3791257212583	1602.3350238352514	0.0	653.0345431326429	1577.1891407029707	0.0	728.4246351086204	1222.0486716533892	0.0	721.6932361598147	1359.470725751096	0.0	706.0579454016532	1463.7679830539853	0.0	713.8512031164654	1527.5774551699926	0.0	731.8260434255307	1515.769556748931	0.0	698.0251851084986	1472.1833741274465	0.0	683.3227729399574	1012.9770006947183	0.0	651.5361386137937	910.1093955158055	0.0	659.7019745130543	1002.112660687373	0.0	606.879298575025	1013.1149133158658	0.0	587.2707787163474	1119.1758953478654	0.0	582.0637963818928	1213.7685100531394	0.0	760.3867016408867	1015.2093621731273	0.0	785.9085758701144	1138.5621552555383	0.0	776.6085463049192	1246.9253445465133	0.0
